# xmcd
#
# Track frame offsets:
#	150
#	10006
#	31478
#	41776
#	53677
#	64598
#	73098
#	88519
#	98730
#	119584
#	135740
#	150875
#	162322
#	171812
#	183862
#	198163
#	208853
#	222086
#	232915
#	243314
#
# Disc length: 3425 seconds
#
# Revision: 0
# Processed by: cddbd v1.5.2PL0 Copyright (c) Steve Scherf et al.
# Submitted via: EasyCDDAExtractor 11.0.3.1
#
DISCID=080d5f14
DTITLE=Various Artist - The Outlaw Trail Collection D1
DYEAR=1900
DGENRE=Country
TTITLE0=Johnny Cash - Rock Island Line
TTITLE1=Jessi Colter - Velvet and Steel
TTITLE2=Waylon Jennings - The Only Daddy That'll Walk the Line
TTITLE3=Ernest Tubb and Willie Nelson - Waltz Across Texas
TTITLE4=Roger Miller - King of the Road
TTITLE5=Jerry Lee Lewis - Geat Balls of Fire
TTITLE6=Jerry Jeff Walker - Viva Luckenbach
TTITLE7=Patsy Cline - Three Cigarettes in the Ashtray
TTITLE8=John Prine - Sam Stone
TTITLE9=Lee Clayton - Ladies Love Outlaws
TTITLE10=Moe Bandy - Hank Williams You Wrote My Life
TTITLE11=Kris Kristofferson - Here Comes That Rainbow Again
TTITLE12=Merle Haggard - Legend of Bonnie and Clyde
TTITLE13=Johnny Paycheck - Born Hell Raiser
TTITLE14=Tompall Glaser - It Never Crossed My Mind
TTITLE15=Eddie Rabbit - Two Dollars in the Jukebox
TTITLE16=Billy Joe Shaver - Honky Tonk Heroes
TTITLE17=Eddy Raven - I Got Mexico
TTITLE18=George Hamilton IV - Abeline
TTITLE19=Glen Campbell - Rhinestone Cowboy
EXTD=
EXTT0=
EXTT1=
EXTT2=
EXTT3=
EXTT4=
EXTT5=
EXTT6=
EXTT7=
EXTT8=
EXTT9=
EXTT10=
EXTT11=
EXTT12=
EXTT13=
EXTT14=
EXTT15=
EXTT16=
EXTT17=
EXTT18=
EXTT19=
PLAYORDER=
